<?xml version="1.0" encoding="utf-8"?>
<!-- Generator: Adobe Illustrator 24.0.3, SVG Export Plug-In . SVG Version: 6.00 Build 0)  -->
<svg version="1.1" id="Ebene_1" xmlns="http://www.w3.org/2000/svg" xmlns:xlink="http://www.w3.org/1999/xlink" x="0px" y="0px"
	 viewBox="0 0 477.3 421.5" style="enable-background:new 0 0 477.3 421.5;" xml:space="preserve">
<style type="text/css">
	.st0{fill:#F4F5FA;}
</style>
<title>hero-bg</title>
<g id="Ebene_2_1_">
	<g id="Ebene_1-2">
		<path class="st0" d="M22.9,0C9.4,20.3-5,51.2,1.7,86c3.4,17.4,11,30.2,22.4,49c22.5,37.1,36.3,43.2,56.5,71s28.8,53.9,45.9,106
			c14.9,45.3,14.8,60.9,35.3,80c5.3,5,27.4,25.5,61.2,29c23.5,2.4,42.4-5,80.1-20c34.1-13.6,36-19.2,67.1-29
			c17.5-5.6,35.7-9.6,54.2-12c17.5-2.2,35.3-2.9,53-2V0H22.9z"/>
	</g>
</g>
</svg>
