<svg width="22" height="20" viewBox="0 0 22 20" fill="none" xmlns="http://www.w3.org/2000/svg">
<path d="M10.2375 0.451372C10.3078 0.315893 10.4166 0.201815 10.5515 0.122045C10.6865 0.0422762 10.8422 0 11.0012 0C11.1601 0 11.3158 0.0422762 11.4508 0.122045C11.5858 0.201815 11.6945 0.315893 11.7648 0.451372L14.5039 5.72724C14.5653 5.84481 14.6557 5.94648 14.7674 6.02355C14.8792 6.10063 15.009 6.15081 15.1456 6.16979L21.2711 7.01565C21.4283 7.03738 21.576 7.10049 21.6974 7.19784C21.8189 7.29518 21.9093 7.42288 21.9583 7.5665C22.0074 7.71012 22.0133 7.86392 21.9752 8.01053C21.9371 8.15713 21.8566 8.29068 21.7429 8.39608L17.3108 12.5013C17.2121 12.593 17.1382 12.706 17.0954 12.8308C17.0527 12.9556 17.0424 13.0883 17.0654 13.2177L18.1096 19.0168C18.1353 19.1653 18.1172 19.3177 18.0571 19.4569C17.9971 19.5961 17.8975 19.7168 17.7695 19.8053C17.6415 19.8939 17.4902 19.9469 17.3323 19.9585C17.1745 19.97 17.0163 19.9397 16.8756 19.8708L11.396 17.1343C11.2738 17.0732 11.1378 17.0412 10.9997 17.0412C10.8616 17.0412 10.7256 17.0732 10.6034 17.1343L5.12578 19.8726C4.98516 19.9426 4.82678 19.9737 4.66851 19.9627C4.51023 19.9516 4.35837 19.8987 4.23004 19.8099C4.10172 19.7212 4.00205 19.6001 3.94228 19.4604C3.8825 19.3206 3.865 19.1678 3.89176 19.0191L4.93593 13.2199C4.95921 13.0906 4.94904 12.9577 4.90629 12.8329C4.86354 12.7081 4.7895 12.5951 4.69055 12.5035L0.257084 8.39608C0.143308 8.29065 0.06284 8.15706 0.0247825 8.01043C-0.0132751 7.86379 -0.00740377 7.70996 0.0417323 7.56633C0.0908683 7.4227 0.181308 7.29501 0.302823 7.19769C0.424338 7.10037 0.572079 7.03731 0.729336 7.01565L6.85579 6.16979C6.99245 6.15091 7.12223 6.10072 7.23394 6.02354C7.34565 5.94637 7.43593 5.84452 7.497 5.72679L10.2375 0.451372Z" fill="white"/>
</svg>
